<svg xmlns="http://www.w3.org/2000/svg" version="1.1" xmlns:xlink="http://www.w3.org/1999/xlink" xmlns:svgjs="http://svgjs.com/svgjs" width="252.45600000000002" height="271.944"><g transform="matrix(0.21077388369515535,0,0,0.6305929548030297,25.24556207510932,27.194474744355347)"><svg xmlns="http://www.w3.org/2000/svg" version="1.1" xmlns:xlink="http://www.w3.org/1999/xlink" xmlns:svgjs="http://svgjs.com/svgjs" width="958.206" height="345.001"><svg xmlns="http://www.w3.org/2000/svg" version="1.1" xmlns:xlink="http://www.w3.org/1999/xlink" xmlns:svgjs="http://svgjs.com/svgjs" width="958.206" height="345.001" class="class-xu3xqaj4m"><svg xmlns="http://www.w3.org/2000/svg" height="345.001" width="958.206" class="class-xu3xqaj4m">
    <path d="M910.94 164.501c-76.38 64.06-201.024 180.5-449 180.5s-525.537-116.628-449-180.5c262.867-219.37 1159.47-219.3 898 0z" fill-rule="evenodd" class="fill-color-0"></path>
</svg></svg><style>.class-xu3xqaj4m .fill-skin {
  fill: #f1d9b1;
}
.class-xu3xqaj4m .fill-skin-shadow {
  fill: #ebc78d;
}
.class-xu3xqaj4m .fill-hair {
  fill: #5d7892;
}
.class-xu3xqaj4m .fill-hair-shadow {
  fill: #546c83;
}
.class-xu3xqaj4m .fill-white {
  fill: #f0f0f0;
}
.class-xu3xqaj4m .fill-white-shadow {
  fill: #d8d8d8;
}
.class-xu3xqaj4m .fill-white-shadow-extra {
  fill: #c2c2c2;
}
.class-xu3xqaj4m .stop-color-white {
  stop-color: #f0f0f0;
}
.class-xu3xqaj4m .stop-color-white-shadow {
  stop-color: #d8d8d8;
}
.class-xu3xqaj4m .stop-color-white-shadow-extra {
  stop-color: #c2c2c2;
}
.class-xu3xqaj4m .stroke-white {
  stroke: #f0f0f0;
}
.class-xu3xqaj4m .stroke-white-shadow {
  stroke: #d8d8d8;
}
.class-xu3xqaj4m .stroke-white-shadow-extra {
  stroke: #b5b5b5;
}
.class-xu3xqaj4m .fill-yellow {
  fill: #eaea00;
}
.class-xu3xqaj4m .fill-yellow-shadow {
  fill: #dada00;
}
.class-xu3xqaj4m .fill-yellow-shadow-extra {
  fill: #cbcb00;
}
.class-xu3xqaj4m .stop-color-yellow {
  stop-color: #eaea00;
}
.class-xu3xqaj4m .stop-color-yellow-shadow {
  stop-color: #dada00;
}
.class-xu3xqaj4m .stop-color-yellow-shadow-extra {
  stop-color: #cbcb00;
}
.class-xu3xqaj4m .fill-green {
  fill: #2ba24c;
}
.class-xu3xqaj4m .fill-green-shadow {
  fill: #279244;
}
.class-xu3xqaj4m .fill-green-shadow-extra {
  fill: #23833d;
}
.class-xu3xqaj4m .stop-color-green {
  stop-color: #2ba24c;
}
.class-xu3xqaj4m .stop-color-green-shadow {
  stop-color: #279244;
}
.class-xu3xqaj4m .stop-color-green-shadow-extra {
  stop-color: #23833d;
}
.class-xu3xqaj4m .stroke-green {
  stroke: #2ba24c;
}
.class-xu3xqaj4m .stroke-green-shadow {
  stroke: #279244;
}
.class-xu3xqaj4m .stroke-green-shadow-extra {
  stroke: #217a39;
}
.class-xu3xqaj4m .fill-red {
  fill: #ce3827;
}
.class-xu3xqaj4m .fill-red-shadow {
  fill: #b93223;
}
.class-xu3xqaj4m .fill-red-shadow-extra {
  fill: #a62d1f;
}
.class-xu3xqaj4m .stop-color-red {
  stop-color: #ce3827;
}
.class-xu3xqaj4m .stop-color-red-shadow {
  stop-color: #b93223;
}
.class-xu3xqaj4m .stop-color-red-shadow-extra {
  stop-color: #a62d1f;
}
.class-xu3xqaj4m .fill-orange {
  fill: #f09c25;
}
.class-xu3xqaj4m .fill-orange-shadow {
  fill: #e98f10;
}
.class-xu3xqaj4m .fill-orange-shadow-extra {
  fill: #d1800e;
}
.class-xu3xqaj4m .stop-color-orange {
  stop-color: #f09c25;
}
.class-xu3xqaj4m .stop-color-orange-shadow {
  stop-color: #e98f10;
}
.class-xu3xqaj4m .stop-color-orange-shadow-extra {
  stop-color: #d1800e;
}
.class-xu3xqaj4m .fill-blue {
  fill: #3b7ded;
}
.class-xu3xqaj4m .fill-blue-shadow {
  fill: #1f6bea;
}
.class-xu3xqaj4m .fill-blue-shadow-extra {
  fill: #145eda;
}
.class-xu3xqaj4m .stop-color-blue {
  stop-color: #3b7ded;
}
.class-xu3xqaj4m .stop-color-blue-shadow {
  stop-color: #1f6bea;
}
.class-xu3xqaj4m .stop-color-blue-shadow-extra {
  stop-color: #145eda;
}
.class-xu3xqaj4m .fill-color-0 {
  fill: #5d7892;
}
.class-xu3xqaj4m .fill-color-0-shadow {
  fill: #546c83;
}
.class-xu3xqaj4m .fill-color-0-shadow-extra {
  fill: #465a6e;
}
.class-xu3xqaj4m .stop-color-color-0 {
  stop-color: #5d7892;
}
.class-xu3xqaj4m .fill-color-1 {
  fill: #abb8cc;
}
.class-xu3xqaj4m .fill-color-1-shadow {
  fill: #93a4be;
}
.class-xu3xqaj4m .fill-color-1-shadow-extra {
  fill: #7187a9;
}
.class-xu3xqaj4m .fill-color-2 {
  fill: #fdfefe;
}
.class-xu3xqaj4m .fill-color-2-shadow {
  fill: #dbeded;
}
.class-xu3xqaj4m .fill-color-2-shadow-extra {
  fill: #a9d4d4;
}
.class-xu3xqaj4m .fill-color-3 {
  fill: #fcfdfc;
}
.class-xu3xqaj4m .fill-color-3-shadow {
  fill: #dde9dd;
}
.class-xu3xqaj4m .fill-color-3-shadow-extra {
  fill: #b0ccb0;
}
.class-xu3xqaj4m .fill-body-detail {
  fill: #ffffff;
}
.class-xu3xqaj4m .stroke-color-0 {
  stroke: #5d7892;
}
.class-xu3xqaj4m .stroke-color-0-shadow {
  stroke: #546c83;
}
.class-xu3xqaj4m .stroke-color-0-shadow-extra {
  stroke: #465a6e;
}
.class-xu3xqaj4m .stroke-color-1 {
  stroke: #abb8cc;
}
.class-xu3xqaj4m .stroke-color-1-shadow {
  stroke: #93a4be;
}
.class-xu3xqaj4m .stroke-color-1-shadow-extra {
  stroke: #7187a9;
}
.class-xu3xqaj4m .stroke-color-2 {
  stroke: #fdfefe;
}
.class-xu3xqaj4m .stroke-color-2-shadow {
  stroke: #dbeded;
}
.class-xu3xqaj4m .stroke-color-2-shadow-extra {
  stroke: #a9d4d4;
}
.class-xu3xqaj4m .stroke-color-3 {
  stroke: #fcfdfc;
}
.class-xu3xqaj4m .stroke-color-3-shadow {
  stroke: #dde9dd;
}
.class-xu3xqaj4m .stroke-color-3-shadow-extra {
  stroke: #b0ccb0;
}</style></svg></g><g transform="matrix(1.4854726906248459,0,0,1.4854726906248463,-0.02359517383727905,-0.017553849796939858)"><svg xmlns="http://www.w3.org/2000/svg" version="1.1" xmlns:xlink="http://www.w3.org/1999/xlink" xmlns:svgjs="http://svgjs.com/svgjs" width="126.93599999999999" height="162.728" viewBox="0 0 158.67 203.41"><svg xmlns="http://www.w3.org/2000/svg" version="1.1" xmlns:xlink="http://www.w3.org/1999/xlink" xmlns:svgjs="http://svgjs.com/svgjs" width="158.67" height="203.41" class="class-2iexg10u1"><svg xmlns="http://www.w3.org/2000/svg" viewBox="0 0 158.67 203.41" class="class-2iexg10u1">
    <g data-name="Layer 2">
        <g data-name="Layer 1">
            <path d="M24.58 191.55a13.65 13.65 0 003.5-7.63l1.37-16.27 8.71.73s-1.41 15-.28 22.34c0 0-5.58 12.28-13.3.83z" class="fill-body-detail"></path>
            <path d="M37.88 190.72l.44 9.63A2.51 2.51 0 0136.1 203a40.51 40.51 0 01-7.46.26l-.77-.39a6.17 6.17 0 00-3.51-.6 125 125 0 01-15.6 1.17 26.81 26.81 0 01-6-.94c-2.52-1-3.41-1.89-2.3-2.15 7.81-1.78 20.27-9.85 21.82-11.16a3.51 3.51 0 013.31-.65l.73.22a3.57 3.57 0 012.43 2.65l.06.26s5.43 2.96 9.07-.95z" class="fill-color-0-shadow"></path>
            <path d="M97.52 90.49L117 92.88s7.38 22.55-7.29 24.88c0 0-61.75-2.77-66.21 12.19s-4.14 52.86-4.14 52.86-1.18 2.87-6.91-4.77c-.67.48-1.94-55.88-1.05-61.77 0 0 4-6.1 21.06-7.79s40.96-4.06 45.06-17.99z" class="fill-color-1"></path>
            <path d="M117.61 95.21l-12.21 2.6a19 19 0 01-9.4 7.64c-7.39 3-28.23 7.45-35.65 6.21-2.72.31-5.38-3.43-7.89-3.18A54 54 0 0040.11 111a15.88 15.88 0 014.27 6.76s-7.91 2-8.23 6.8c-.24 3.7-4.54 39.8-6.44 58.37a25.3 25.3 0 009.62-.12S39 144.9 43.47 130s66.21-12.19 66.21-12.19c11.77-1.92 9.32-16.81 7.93-22.6z" class="fill-color-1-shadow"></path>
            <path d="M119.07 67.44C93.69 99.6 69.92 93.38 66.5 93.56s-3.26 1.92-3.26 1.92l-4.85-1.68c-7.87-2.72-13.78-.8-13.78-.8 5.23-5.77 16.53-4.57 16.53-4.57 37.4 4.41 52-32.76 52-32.76z" class="fill-skin"></path>
            <path d="M93.76 84.67a50 50 0 01-26.26 7c-7.35-.07-8.53.79-10.72 1.59.53.14 1.06.3 1.61.49l4.85 1.68s-.17-1.74 3.26-1.92c2.37-.12 14.46 2.8 30.08-6z" class="fill-skin-shadow"></path>
            <path d="M90.6 82.26a17.31 17.31 0 002.4 7.13c7.88-3.71 16.85-10.31 26-22l-5.53-11-.63-.31c-1.18 2.97-8 17.52-22.24 26.18z" class="fill-color-2-shadow"></path>
            <path d="M93.9 98.13c-11.17 6.48-36.75-15.17-55.25-3 0 0 2.68 10.86 5.7 13.08 6.41 4.71 14.83 12 16.14 13.91 0 0 12.8.36 11.25-9.51L63.8 108s26.49-2.23 30.1-9.87z" class="fill-color-1"></path>
            <path d="M93.9 96.58l-2.46 2.11s9 2.61 11.37 7.91l5.81-8.4z" class="fill-color-1-shadow"></path>
            <path d="M128 35.8c-7.82-2-4.52-4.28-11.12 1s-11 9.85-13.29 18.5c-.77 2.89-.27 9.25-.41 9.88-3 13.91-5.84 27.61-11.15 32.56 0 0 17.14 3.82 29.27 9.73 0 0-8.62-18.44 15.24-56.89 0 0 .09-.43.18-1.14a38.63 38.63 0 008-1.61c11.94-4.9 14-11.19 14-11.19-8.22-9.17-22.72-4.48-30.72-.84z" class="fill-color-2"></path>
            <path d="M104.52 57.24a12.65 12.65 0 0112 2.72l-1.46 4.76s-5.83-6.9-9.91-6.91z" class="fill-color-2-shadow"></path>
            <path d="M141.34 40.47l5.77-3.78s-25.23.44-35.68 31.94c-9.9 29.83-4.72 22.14-11.25 31.18a133.84 133.84 0 0121.07 7.62s-2.42-30.83 15.24-56.89c0 0 .09-.43.18-1.14 2-.25 3.81-.53 5.36-.86z" class="fill-color-2-shadow"></path>
            <path d="M129.14 35.28s-3.77-1.65-5.47-12.89-.7-5.25-.7-5.25L114.48 21s2.49 13.65 2.35 15.8-3.35 6.84-3.35 6.84z" class="fill-skin"></path>
            <path d="M123.67 22.39c-.38-2.52-.62-4.16-.77-5.21l-7.16 3.21c-.44.66-.87 1.25-.87 1.25v1.5c.53 3 1.45 8.41 1.81 11.52 1.54-.6 3.7-1.22 5-.55a11 11 0 013.22 3.4l4.21-2.23s-3.74-1.65-5.44-12.89z" class="fill-skin-shadow"></path>
            <path d="M125 25.09a.39.39 0 000 .11.7.7 0 010-.11zM100.49 8.22s-.91 4.76 1.36 8.45a4.08 4.08 0 01.41 3.31l-.64 1.88a1.35 1.35 0 001.43 1.79l.54-.06s0 2.11 1 2.57 0 1.09 1.09 1.87a6.53 6.53 0 011.32 2.46 3.93 3.93 0 004.19 2.51c2.32-.29 4.55-2.76 6.27-3.35l6.76-2.34s-3.28-8.79-.6-13.1 2.25-10.1-6.35-11.48-17.72 1.6-16.78 5.49z" class="fill-skin"></path>
            <path d="M121.31 12.79s-4.52-1.64-5.63.53a10.49 10.49 0 00-1 4.41 27.72 27.72 0 00.15 3.91v9.61a12 12 0 012.59-1.57l6.76-2.34s-2.53-6.8-1.32-11.37z" class="fill-skin-shadow"></path>
            <path d="M107 17.61c-.15-.39-1.59-.58-2-.43a.75.75 0 00-.44 1M123.78 23s-4.81-.72-3.85-3.35c.8-2.18 1-6.41-.78-6.66s-3.38.56-3.78 3.76S114.1 11 112 9.79c-1.35-.8-3.68-1.77-8.24 1s-9.1.21-11.14-3.13c0 0 2.79.85 7-2.07s9.4-7.36 15.75-4.85c0 0 5.65-1.38 9.08 4.75S122 16.34 123.78 23z" class="fill-color-0-shadow"></path>
            <path d="M115.66 21.8c-.16-.79-.21-8.27-.21-8.27l-2.16-2s.32 9.43.54 12.28a4.93 4.93 0 01-3.53 5c-1.47.39-2.2-3.55-3.06-5.11s-3.65-.07-3.65-.07a3.52 3.52 0 00.06 1.54c.76-.27 2.31-.6 2.72.42l.14.33a1.39 1.39 0 01-.69 1.77l-.48.06a19.86 19.86 0 010 4.48c0 2.47 4.91 2.69 6.69 1.75s6.31-3.54 6.31-3.54a22.67 22.67 0 01-2.68-8.64z" class="fill-color-0-shadow"></path>
            <path d="M141.34 40.47s4 1.27 3.37 7.32c0 0-27.24 11.13-27.87 12.88s-6.62 4.7-7.62 7.86 0 10.12 0 10.12-1.29 1.12-2.88-4.61-2.39-14 7.42-18.41c0 0 4.51-1.32 27.58-15.16z" class="fill-skin"></path>
            <path d="M141.64 48.62a18.66 18.66 0 003.07-.83c11.11-4.56 13.63-10.32 13.93-11.1-7.29.9-14.77 6-14.77 6a20.65 20.65 0 00-2.23 5.93z" class="fill-color-2-shadow"></path>
            <path d="M116.15 59.6s-.43 5.21-1.54 7.81L113.5 70s-1.27 0-.74-2.65a18.66 18.66 0 000-5.73z" class="fill-skin-shadow"></path>
            <path d="M116.84 60.67c.63-1.75 27.87-12.88 27.87-12.88a8.1 8.1 0 00-.84-5.09c-7.54 4.19-25.7 14.26-27 14.63-1.7.48-7.74 6.21-8.54 8.12-.4 1-1.65.79-2.79.37a21.12 21.12 0 00.84 8.22c1.59 5.73 2.88 4.61 2.88 4.61s-1-7 0-10.12 6.94-6.11 7.58-7.86z" class="fill-skin-shadow"></path>
            <path d="M38.65 95.17c3.26 8 13.42 14.68 22.75 21.52l-.19 6.68-16.86-13.12s-7.72-7.19-5.7-15.08zM54.56 99.25c-5.8-2.87 7.09.9 10.59 2 1.47.47 4.75 2 4.75 2l-5.17 1.28a5.12 5.12 0 01-4.41-1.18 28.34 28.34 0 00-5.76-4.1z" class="fill-color-1-shadow"></path>
            <path d="M72.15 114.31a3.89 3.89 0 00-3.31-4c-2.72-.41-6.52-.27-8.15 3.11a10.65 10.65 0 00.52 9.93s5.09 5.1 10.07-3.28a19.27 19.27 0 00.87-5.76z" class="fill-color-1-shadow"></path>
            <path d="M62.14 118.24s-.39-6.28 5.54-5.67L80 124.48l-6.54 4.06z" class="fill-body-detail"></path>
            <path d="M74.78 119.16l9.43 5-10 6.9a122.41 122.41 0 01-19.81 12.57s-1.3-1.51 3.18-6.22c11.48-12.06 9.57-14.2 9.57-14.2s.91-2.51 3.25-.58 4.38-3.47 4.38-3.47z" class="fill-color-0-shadow"></path>
            <path d="M54.4 143.63s-.75-4.77 14.56-12c7.42-3.5 15.75-11.52 16.42-5.26.51 4.75-6.59 3.91-12.44 9.53-13.66 13.1-18.54 7.73-18.54 7.73z" class="fill-skin-shadow"></path>
            <path d="M31.37 116.27s1.67 5.21 13 1.49l-10.51 65.58A15.68 15.68 0 0121.08 178c5.31-34.85 10.29-61.73 10.29-61.73z" class="fill-color-1-shadow"></path>
            <path d="M115.4.74c-6.35-2.51-11.51 1.93-15.75 4.85s-7 2.07-7 2.07 5.28 3.44 9.52.36S107-1.27 115.4.74M112.49 10.22s3.69-1.21 5.49 0l-4.69 1.28zM113.34 12.85l2.47-.65-2.42 1.88-.05-1.23z" class="fill-color-0"></path>
            <path d="M54.39 90.49s-6.15 3.66-3.76 3.5 3.93-2.67 7.51-2.13-3.75-1.37-3.75-1.37z" class="fill-skin"></path>
        </g>
    </g>
</svg></svg><style>.class-2iexg10u1 .fill-skin {
  fill: #f1d9b1;
}
.class-2iexg10u1 .fill-skin-shadow {
  fill: #ebc78d;
}
.class-2iexg10u1 .fill-hair {
  fill: #415466;
}
.class-2iexg10u1 .fill-hair-shadow {
  fill: #3a4b5c;
}
.class-2iexg10u1 .fill-white {
  fill: #f0f0f0;
}
.class-2iexg10u1 .fill-white-shadow {
  fill: #d8d8d8;
}
.class-2iexg10u1 .fill-white-shadow-extra {
  fill: #c2c2c2;
}
.class-2iexg10u1 .stop-color-white {
  stop-color: #f0f0f0;
}
.class-2iexg10u1 .stop-color-white-shadow {
  stop-color: #d8d8d8;
}
.class-2iexg10u1 .stop-color-white-shadow-extra {
  stop-color: #c2c2c2;
}
.class-2iexg10u1 .stroke-white {
  stroke: #f0f0f0;
}
.class-2iexg10u1 .stroke-white-shadow {
  stroke: #d8d8d8;
}
.class-2iexg10u1 .stroke-white-shadow-extra {
  stroke: #b5b5b5;
}
.class-2iexg10u1 .fill-yellow {
  fill: #eaea00;
}
.class-2iexg10u1 .fill-yellow-shadow {
  fill: #dada00;
}
.class-2iexg10u1 .fill-yellow-shadow-extra {
  fill: #cbcb00;
}
.class-2iexg10u1 .stop-color-yellow {
  stop-color: #eaea00;
}
.class-2iexg10u1 .stop-color-yellow-shadow {
  stop-color: #dada00;
}
.class-2iexg10u1 .stop-color-yellow-shadow-extra {
  stop-color: #cbcb00;
}
.class-2iexg10u1 .fill-green {
  fill: #2ba24c;
}
.class-2iexg10u1 .fill-green-shadow {
  fill: #279244;
}
.class-2iexg10u1 .fill-green-shadow-extra {
  fill: #23833d;
}
.class-2iexg10u1 .stop-color-green {
  stop-color: #2ba24c;
}
.class-2iexg10u1 .stop-color-green-shadow {
  stop-color: #279244;
}
.class-2iexg10u1 .stop-color-green-shadow-extra {
  stop-color: #23833d;
}
.class-2iexg10u1 .stroke-green {
  stroke: #2ba24c;
}
.class-2iexg10u1 .stroke-green-shadow {
  stroke: #279244;
}
.class-2iexg10u1 .stroke-green-shadow-extra {
  stroke: #217a39;
}
.class-2iexg10u1 .fill-red {
  fill: #ce3827;
}
.class-2iexg10u1 .fill-red-shadow {
  fill: #b93223;
}
.class-2iexg10u1 .fill-red-shadow-extra {
  fill: #a62d1f;
}
.class-2iexg10u1 .stop-color-red {
  stop-color: #ce3827;
}
.class-2iexg10u1 .stop-color-red-shadow {
  stop-color: #b93223;
}
.class-2iexg10u1 .stop-color-red-shadow-extra {
  stop-color: #a62d1f;
}
.class-2iexg10u1 .fill-orange {
  fill: #f09c25;
}
.class-2iexg10u1 .fill-orange-shadow {
  fill: #e98f10;
}
.class-2iexg10u1 .fill-orange-shadow-extra {
  fill: #d1800e;
}
.class-2iexg10u1 .stop-color-orange {
  stop-color: #f09c25;
}
.class-2iexg10u1 .stop-color-orange-shadow {
  stop-color: #e98f10;
}
.class-2iexg10u1 .stop-color-orange-shadow-extra {
  stop-color: #d1800e;
}
.class-2iexg10u1 .fill-blue {
  fill: #3b7ded;
}
.class-2iexg10u1 .fill-blue-shadow {
  fill: #1f6bea;
}
.class-2iexg10u1 .fill-blue-shadow-extra {
  fill: #145eda;
}
.class-2iexg10u1 .stop-color-blue {
  stop-color: #3b7ded;
}
.class-2iexg10u1 .stop-color-blue-shadow {
  stop-color: #1f6bea;
}
.class-2iexg10u1 .stop-color-blue-shadow-extra {
  stop-color: #145eda;
}
.class-2iexg10u1 .fill-color-0 {
  fill: #415466;
}
.class-2iexg10u1 .fill-color-0-shadow {
  fill: #3a4b5c;
}
.class-2iexg10u1 .fill-color-0-shadow-extra {
  fill: #313f4d;
}
.class-2iexg10u1 .stop-color-color-0 {
  stop-color: #415466;
}
.class-2iexg10u1 .fill-color-1 {
  fill: #657ea1;
}
.class-2iexg10u1 .fill-color-1-shadow {
  fill: #597192;
}
.class-2iexg10u1 .fill-color-1-shadow-extra {
  fill: #4a5f7a;
}
.class-2iexg10u1 .fill-color-2 {
  fill: #9fc4c4;
}
.class-2iexg10u1 .fill-color-2-shadow {
  fill: #89b6b6;
}
.class-2iexg10u1 .fill-color-2-shadow-extra {
  fill: #69a2a2;
}
.class-2iexg10u1 .fill-body-detail {
  fill: #ffffff;
}
.class-2iexg10u1 .stroke-color-0 {
  stroke: #415466;
}
.class-2iexg10u1 .stroke-color-0-shadow {
  stroke: #3a4b5c;
}
.class-2iexg10u1 .stroke-color-0-shadow-extra {
  stroke: #313f4d;
}
.class-2iexg10u1 .stroke-color-1 {
  stroke: #657ea1;
}
.class-2iexg10u1 .stroke-color-1-shadow {
  stroke: #597192;
}
.class-2iexg10u1 .stroke-color-1-shadow-extra {
  stroke: #4a5f7a;
}
.class-2iexg10u1 .stroke-color-2 {
  stroke: #9fc4c4;
}
.class-2iexg10u1 .stroke-color-2-shadow {
  stroke: #89b6b6;
}
.class-2iexg10u1 .stroke-color-2-shadow-extra {
  stroke: #69a2a2;
}</style></svg></g><g transform="matrix(1,0,0,1,174,157)"><svg xmlns="http://www.w3.org/2000/svg" version="1.1" xmlns:xlink="http://www.w3.org/1999/xlink" xmlns:svgjs="http://svgjs.com/svgjs" width="78.456" height="114.94400000000002" viewBox="0 0 98.07 143.68"><svg xmlns="http://www.w3.org/2000/svg" version="1.1" xmlns:xlink="http://www.w3.org/1999/xlink" xmlns:svgjs="http://svgjs.com/svgjs" width="98.07" height="143.68" class="class-dmozk9eqg"><svg xmlns="http://www.w3.org/2000/svg" viewBox="0 0 98.07 143.68" class="class-dmozk9eqg">
    <g data-name="Layer 2">
        <g data-name="Layer 1">
            <path d="M59.72 93.38h.09l.22.1.5.19c.35.13.71.25 1.09.37.75.22 1.52.43 2.31.59a28.6 28.6 0 004.81.58 26.14 26.14 0 009.66-1.41 24.54 24.54 0 004.6-2.12c.75-.4 1.44-.91 2.16-1.38s1.41-1 2.05-1.61a40 40 0 007.14-8 2 2 0 013.55 2 44.84 44.84 0 01-6.45 10.21c-.63.82-1.39 1.54-2.09 2.31s-1.51 1.47-2.36 2.13a31.92 31.92 0 01-5.26 3.66 34.88 34.88 0 01-12.36 4.1 38.16 38.16 0 01-6.59.34c-1.11 0-2.22-.13-3.34-.26-.56-.07-1.12-.16-1.7-.26l-.88-.17-.46-.11-.26-.06-.33-.09a5.88 5.88 0 013.9-11.09zM21.66 75s-.28 20.16 3.74 24.37 1.52 6.42 0 6.65-14.22 2-15.48 4.65-1.56 5.51 10.41 2.66 19.5-5.54 19.06-14.4S21.66 75 21.66 75z" class="fill-color-0-shadow-extra"></path>
            <path d="M56.89 64.37A78.8 78.8 0 0142 39.64c-1.15-7.12-.3-13.21-.84-19.73v-.05C41 8.59 44.81 8.21 48.14 10.53s5.64-4.21-3.22-9.08c-6.58-3.62-11.26.4-13.24 2.7A25.38 25.38 0 0019.89 3c-.42.09-.82.2-1.21.32C16.4 1.06 12-1.77 6.18 1.45-2.68 6.32-.35 12.86 3 10.53s7.12-1.94 6.93 9.33a9.82 9.82 0 00.07 1.81 49.72 49.72 0 001.68 9.69 30.54 30.54 0 01-.89 18.92C7.55 58 6.9 64.71 7.87 70.43s8.27 45.22 2.07 50.21c-7.17 5.76-8.86 9.55-5.32 11.77s7.31.19 10-4.46 3.1-6.87 3.1-16.62c0-7.1.83-15.84 3.89-20.06A57 57 0 0033.25 98c-1.11 24.16-4.64 28.59-7.27 36.8-2.77 8.64 5.21 8.86 5.21 8.86s6-.89 5.54-10.86c-.27-6.07 2.75-19.14 5.15-28.42 4.8 3.93 10.44 6.74 15.6 7.62a7.31 7.31 0 01-2.37 4.19c-3.76 3.1-8.64 10.41-.88 11.07s5.76-4.43 8.42-7.09c1.91-1.91 8.78-11 9.89-17 2.87-10.59-4.32-25.9-15.65-38.8z" class="fill-color-0"></path>
            <path d="M42.66 41.26c-.23-.57-.44-1.12-.62-1.62-1.15-7.12-.3-13.21-.84-19.73v-.05c-.2-11.27 3.61-11.65 6.94-9.33s5.64-4.21-3.22-9.08A9.53 9.53 0 0035.61 1a6.14 6.14 0 01-1.51 3.55c-6.58 7.17-11.3 18.13-7.22 44.77 0 0 6.95.99 15.78-8.06z" class="fill-color-0-shadow"></path>
            <path d="M42.76 41.52c-8.23 8.07-9.25 6.86-15.73 8.76-.32 2 .56.44.23 1.43.85 5.2 1.55 9 5.53 14.84 8.09 11.84 6.77 23.46 4.12 35.78-2.23 10.36-6.44 30.32-4.31 40.82 1.74-1 4.43-3.52 4.13-10.33-.27-6.07 2.75-19.14 5.15-28.42 4.8 3.93 10.44 6.74 15.6 7.62a7.31 7.31 0 01-2.37 4.19c-3.76 3.1-8.64 10.41-.88 11.07s5.76-4.43 8.42-7.09c1.91-1.91 8.78-11 9.89-17 2.87-10.58-4.32-25.89-15.65-38.79a79.1 79.1 0 01-14.13-22.88z" class="fill-color-0-shadow"></path>
            <path d="M37.09 5.56c1.29-1.07 5-3.46 8.61.43 0 0-3.78.1-4.74 3.21a.37.37 0 01-.67.09 8.75 8.75 0 00-3.1-3.1.38.38 0 01-.1-.63zM15.31 5.56C14 4.49 10.35 2.1 6.7 6c0 0 3.78.1 4.75 3.21a.36.36 0 00.66.09 8.75 8.75 0 013.1-3.1.37.37 0 00.1-.64z" class="fill-white-shadow"></path>
            <circle cx="18.42" cy="14.83" r="1.56" class="fill-color-0-shadow-extra"></circle>
            <circle cx="33.74" cy="14.45" r="1.45" class="fill-color-0-shadow-extra"></circle>
            <path d="M19.45 33.07s2.66-2.1 1.77-4.2-3.16-8.48 4.78-8.75 5.14 7.14 4.4 8.69-.3 4.38 2.41 4.26c-.02 0-9.15 4.49-13.36 0z" class="fill-color-0-shadow-extra"></path>
            <path d="M13.6 29.94a.26.26 0 01.45-.26c1.47 1.87 4.36 4 7.5 2.34 4.54-2.36 6-1.27 7.15-.55s4.56 3 8-1.28a.37.37 0 01.65.31c-.8 3.18-3.39 9.58-11.21 9.33s-11.31-6.71-12.54-9.89z" class="fill-color-0-shadow-extra"></path>
            <path d="M21.47 34.2a1.77 1.77 0 00-1 1.6c0 2.58.47 8.82 5.52 8.68s5.62-6.23 5.67-8.93a2 2 0 00-1.26-1.89 10.87 10.87 0 00-8.93.54z" class="fill-color-1"></path>
            <path d="M57.33 121.74a11.79 11.79 0 00-1.11 5.6M54.34 120.75a7 7 0 00-2.72 5.86M34.07 136.81a40.49 40.49 0 000 5.23M30.63 137.36a31.68 31.68 0 00-1 6M28.09 136.26s-1.94 2.76-1.66 4.13M10.59 127.34s-2.11 3.25-2 5.42M7 126.61s-2.77 3-2.44 5.1" fill="none" stroke-miterlimit="10" class="stroke-color-0-shadow-extra"></path>
            <path d="M20.46 71.84c-6.88-2.61-9.53 4.82-10.55 11.5 1.6 11.25 3.28 26.83 1.65 33.94 2.93.8 4.17 4 4.61 7.5 1.25-3 1.5-6.12 1.5-13.45 0-7.1.83-15.84 3.89-20.06A57 57 0 0033.25 98c-.09 2-.2 3.8-.32 5.52 2.39-16.58-2.81-28.02-12.47-31.68z" class="fill-color-0-shadow"></path>
            <path d="M42 39.64c0-.36-.11-.72-.15-1.08C39.94 42 34.74 49 25.22 49H25a13.8 13.8 0 01-12.38-6.84 30.38 30.38 0 01-.58 3.87A16.43 16.43 0 0025 51.8h.22c9.2 0 14.85-5.66 17.74-9.77-.35-.87-.66-1.67-.96-2.39z" class="fill-white"></path>
            <path d="M27.61 32.86c-.15.5-.3 1.1-.42 1.66s-.23 1.14-.32 1.72a20.59 20.59 0 00-.26 3.51.5.5 0 01-1 .16 22.1 22.1 0 01-.77-3.7c-.08-.62-.14-1.25-.18-1.88s-.06-1.25-.05-1.94a1.53 1.53 0 113.05 0 1.49 1.49 0 01-.05.47z" class="fill-color-0-shadow-extra"></path>
            <path d="M41.89 38.56c-1.73 3-7.49 9.08-15.07 10.39.05.94.4 1.82.44 2.76C35.79 50.85 40.43 45.64 43 42c-.35-.87-.66-1.67-.92-2.39-.08-.33-.15-.69-.19-1.05z" class="fill-white-shadow"></path>
            <path d="M27.52 25.44c0 .8-.94 1.45-2.1 1.45s-2.1-.65-2.1-1.45.94-.76 2.1-.76 2.1-.05 2.1.76z" class="fill-color-1-shadow"></path>
        </g>
    </g>
</svg></svg><style>.class-dmozk9eqg .fill-skin {
  fill: #f1d9b1;
}
.class-dmozk9eqg .fill-skin-shadow {
  fill: #ebc78d;
}
.class-dmozk9eqg .fill-hair {
  fill: #415466;
}
.class-dmozk9eqg .fill-hair-shadow {
  fill: #3a4b5c;
}
.class-dmozk9eqg .fill-white {
  fill: #f0f0f0;
}
.class-dmozk9eqg .fill-white-shadow {
  fill: #d8d8d8;
}
.class-dmozk9eqg .fill-white-shadow-extra {
  fill: #c2c2c2;
}
.class-dmozk9eqg .stop-color-white {
  stop-color: #f0f0f0;
}
.class-dmozk9eqg .stop-color-white-shadow {
  stop-color: #d8d8d8;
}
.class-dmozk9eqg .stop-color-white-shadow-extra {
  stop-color: #c2c2c2;
}
.class-dmozk9eqg .stroke-white {
  stroke: #f0f0f0;
}
.class-dmozk9eqg .stroke-white-shadow {
  stroke: #d8d8d8;
}
.class-dmozk9eqg .stroke-white-shadow-extra {
  stroke: #b5b5b5;
}
.class-dmozk9eqg .fill-yellow {
  fill: #eaea00;
}
.class-dmozk9eqg .fill-yellow-shadow {
  fill: #dada00;
}
.class-dmozk9eqg .fill-yellow-shadow-extra {
  fill: #cbcb00;
}
.class-dmozk9eqg .stop-color-yellow {
  stop-color: #eaea00;
}
.class-dmozk9eqg .stop-color-yellow-shadow {
  stop-color: #dada00;
}
.class-dmozk9eqg .stop-color-yellow-shadow-extra {
  stop-color: #cbcb00;
}
.class-dmozk9eqg .fill-green {
  fill: #2ba24c;
}
.class-dmozk9eqg .fill-green-shadow {
  fill: #279244;
}
.class-dmozk9eqg .fill-green-shadow-extra {
  fill: #23833d;
}
.class-dmozk9eqg .stop-color-green {
  stop-color: #2ba24c;
}
.class-dmozk9eqg .stop-color-green-shadow {
  stop-color: #279244;
}
.class-dmozk9eqg .stop-color-green-shadow-extra {
  stop-color: #23833d;
}
.class-dmozk9eqg .stroke-green {
  stroke: #2ba24c;
}
.class-dmozk9eqg .stroke-green-shadow {
  stroke: #279244;
}
.class-dmozk9eqg .stroke-green-shadow-extra {
  stroke: #217a39;
}
.class-dmozk9eqg .fill-red {
  fill: #ce3827;
}
.class-dmozk9eqg .fill-red-shadow {
  fill: #b93223;
}
.class-dmozk9eqg .fill-red-shadow-extra {
  fill: #a62d1f;
}
.class-dmozk9eqg .stop-color-red {
  stop-color: #ce3827;
}
.class-dmozk9eqg .stop-color-red-shadow {
  stop-color: #b93223;
}
.class-dmozk9eqg .stop-color-red-shadow-extra {
  stop-color: #a62d1f;
}
.class-dmozk9eqg .fill-orange {
  fill: #f09c25;
}
.class-dmozk9eqg .fill-orange-shadow {
  fill: #e98f10;
}
.class-dmozk9eqg .fill-orange-shadow-extra {
  fill: #d1800e;
}
.class-dmozk9eqg .stop-color-orange {
  stop-color: #f09c25;
}
.class-dmozk9eqg .stop-color-orange-shadow {
  stop-color: #e98f10;
}
.class-dmozk9eqg .stop-color-orange-shadow-extra {
  stop-color: #d1800e;
}
.class-dmozk9eqg .fill-blue {
  fill: #3b7ded;
}
.class-dmozk9eqg .fill-blue-shadow {
  fill: #1f6bea;
}
.class-dmozk9eqg .fill-blue-shadow-extra {
  fill: #145eda;
}
.class-dmozk9eqg .stop-color-blue {
  stop-color: #3b7ded;
}
.class-dmozk9eqg .stop-color-blue-shadow {
  stop-color: #1f6bea;
}
.class-dmozk9eqg .stop-color-blue-shadow-extra {
  stop-color: #145eda;
}
.class-dmozk9eqg .fill-color-0 {
  fill: #415466;
}
.class-dmozk9eqg .fill-color-0-shadow {
  fill: #3a4b5c;
}
.class-dmozk9eqg .fill-color-0-shadow-extra {
  fill: #313f4d;
}
.class-dmozk9eqg .stop-color-color-0 {
  stop-color: #415466;
}
.class-dmozk9eqg .fill-color-1 {
  fill: #657ea1;
}
.class-dmozk9eqg .fill-color-1-shadow {
  fill: #597192;
}
.class-dmozk9eqg .fill-color-1-shadow-extra {
  fill: #4a5f7a;
}
.class-dmozk9eqg .fill-body-detail {
  fill: #ffffff;
}
.class-dmozk9eqg .stroke-color-0 {
  stroke: #415466;
}
.class-dmozk9eqg .stroke-color-0-shadow {
  stroke: #3a4b5c;
}
.class-dmozk9eqg .stroke-color-0-shadow-extra {
  stroke: #313f4d;
}
.class-dmozk9eqg .stroke-color-1 {
  stroke: #657ea1;
}
.class-dmozk9eqg .stroke-color-1-shadow {
  stroke: #597192;
}
.class-dmozk9eqg .stroke-color-1-shadow-extra {
  stroke: #4a5f7a;
}</style></svg></g></svg>